<svg width="125" height="30" viewBox="0 0 125 30" fill="none" xmlns="http://www.w3.org/2000/svg">
<path d="M1.66154 16.5C0.775383 16.5 0 15.6937 0 14.7723C0 8.43727 3.87692 2.67818 9.52614 0.489727C10.4123 0.144181 11.4092 0.604908 11.7415 1.52636C12.0738 2.44782 11.6308 3.48445 10.7446 3.83C6.31384 5.55773 3.43384 9.93464 3.43384 14.7723C3.32307 15.6937 2.54769 16.5 1.66154 16.5Z" fill="white"/>
<path d="M15.0199 30C9.54211 30 4.62329 26.9214 2.05209 22.0185C1.60493 21.2204 1.9403 20.0802 2.72284 19.6241C3.50538 19.168 4.62329 19.51 5.07046 20.3082C7.0827 24.0709 10.8836 26.4653 15.1317 26.4653C15.1317 26.4653 15.1317 26.4653 15.2435 26.4653C18.2619 26.4653 21.1684 25.2111 23.2925 23.0447C25.4165 20.8783 26.5344 17.9138 26.5344 14.8352C26.5344 9.0201 22.2864 4.1172 16.6968 3.43307C15.8025 3.31905 15.1317 2.40688 15.2435 1.49471C15.3553 0.582539 16.2496 -0.101589 17.144 0.0124327C24.4104 0.924602 30 7.30978 30 14.8352C30 18.8259 28.5467 22.5886 25.7519 25.4392C22.7335 28.4037 19.0444 30 15.0199 30Z" fill="#00D2EA"/>
<path d="M43.744 23.216C43.04 23.216 42.496 23.024 42.112 22.64C41.728 22.256 41.536 21.704 41.536 20.984V8.312C41.536 7.592 41.728 7.04 42.112 6.656C42.496 6.272 43.048 6.08 43.768 6.08H49.672C51.592 6.08 53.072 6.552 54.112 7.496C55.168 8.424 55.696 9.72 55.696 11.384C55.696 12.648 55.376 13.712 54.736 14.576C54.112 15.424 53.2 16.016 52 16.352C52.896 16.592 53.616 17.208 54.16 18.2L55.36 20.36C55.616 20.84 55.728 21.296 55.696 21.728C55.68 22.16 55.512 22.52 55.192 22.808C54.872 23.08 54.4 23.216 53.776 23.216C53.152 23.216 52.64 23.096 52.24 22.856C51.856 22.6 51.512 22.192 51.208 21.632L49.024 17.624C48.832 17.272 48.584 17.032 48.28 16.904C47.992 16.76 47.656 16.688 47.272 16.688H45.952V20.984C45.952 21.704 45.76 22.256 45.376 22.64C45.008 23.024 44.464 23.216 43.744 23.216ZM45.952 13.568H48.88C50.624 13.568 51.496 12.88 51.496 11.504C51.496 10.144 50.624 9.464 48.88 9.464H45.952V13.568ZM62.6093 23.264C61.0733 23.264 59.9373 22.848 59.2013 22.016C58.4813 21.168 58.1213 19.88 58.1213 18.152V13.112C58.1213 11.688 58.8333 10.976 60.2573 10.976C60.9453 10.976 61.4733 11.16 61.8413 11.528C62.2093 11.896 62.3933 12.424 62.3933 13.112V18.272C62.3933 19.424 62.8893 20 63.8813 20C64.4573 20 64.9293 19.792 65.2973 19.376C65.6653 18.96 65.8493 18.408 65.8493 17.72V13.112C65.8493 11.688 66.5613 10.976 67.9853 10.976C68.6733 10.976 69.2013 11.16 69.5693 11.528C69.9373 11.896 70.1213 12.424 70.1213 13.112V21.056C70.1213 22.496 69.4333 23.216 68.0573 23.216C66.8253 23.216 66.1293 22.64 65.9693 21.488C65.2013 22.672 64.0813 23.264 62.6093 23.264ZM79.0394 23.264C77.5994 23.264 76.3514 23.016 75.2954 22.52C74.2554 22.008 73.4554 21.288 72.8954 20.36C72.3354 19.432 72.0554 18.336 72.0554 17.072C72.0554 15.872 72.3194 14.808 72.8474 13.88C73.3914 12.952 74.1274 12.232 75.0554 11.72C75.9994 11.192 77.0714 10.928 78.2714 10.928C79.4554 10.928 80.4794 11.176 81.3434 11.672C82.2234 12.168 82.8954 12.88 83.3594 13.808C83.8394 14.72 84.0794 15.792 84.0794 17.024C84.0794 17.648 83.7114 17.96 82.9754 17.96H76.1354C76.2794 18.728 76.5994 19.28 77.0954 19.616C77.5914 19.952 78.2794 20.12 79.1594 20.12C79.4954 20.12 79.8954 20.08 80.3594 20C80.8234 19.92 81.2634 19.792 81.6794 19.616C82.1914 19.424 82.6234 19.424 82.9754 19.616C83.3274 19.792 83.5594 20.072 83.6714 20.456C83.7994 20.824 83.7834 21.208 83.6234 21.608C83.4794 21.992 83.1834 22.288 82.7354 22.496C82.1754 22.768 81.5754 22.96 80.9354 23.072C80.3114 23.2 79.6794 23.264 79.0394 23.264ZM78.4634 13.688C77.8234 13.688 77.2954 13.88 76.8794 14.264C76.4794 14.648 76.2234 15.208 76.1114 15.944H80.5754C80.5274 15.192 80.3194 14.632 79.9514 14.264C79.5994 13.88 79.1034 13.688 78.4634 13.688ZM90.5279 23.264C89.5199 23.264 88.6239 23.016 87.8399 22.52C87.0719 22.024 86.4639 21.312 86.0159 20.384C85.5839 19.456 85.3679 18.36 85.3679 17.096C85.3679 15.816 85.5839 14.72 86.0159 13.808C86.4639 12.88 87.0719 12.168 87.8399 11.672C88.6239 11.176 89.5199 10.928 90.5279 10.928C91.2799 10.928 91.9679 11.088 92.5919 11.408C93.2319 11.712 93.7199 12.112 94.0559 12.608V8.024C94.0559 6.584 94.7679 5.864 96.1919 5.864C96.8799 5.864 97.4079 6.048 97.7759 6.416C98.1439 6.784 98.3279 7.32 98.3279 8.024V21.056C98.3279 22.496 97.6239 23.216 96.2159 23.216C94.9519 23.216 94.2559 22.616 94.1279 21.416C93.8079 21.976 93.3199 22.424 92.6639 22.76C92.0239 23.096 91.3119 23.264 90.5279 23.264ZM91.8959 20.12C92.5359 20.12 93.0639 19.88 93.4799 19.4C93.8959 18.92 94.1039 18.152 94.1039 17.096C94.1039 16.024 93.8959 15.256 93.4799 14.792C93.0639 14.312 92.5359 14.072 91.8959 14.072C91.2399 14.072 90.7039 14.312 90.2879 14.792C89.8719 15.256 89.6639 16.024 89.6639 17.096C89.6639 18.152 89.8719 18.92 90.2879 19.4C90.7039 19.88 91.2399 20.12 91.8959 20.12ZM104.907 23.264C103.995 23.264 103.187 23.096 102.483 22.76C101.795 22.424 101.251 21.968 100.851 21.392C100.467 20.8 100.275 20.128 100.275 19.376C100.275 18.528 100.499 17.856 100.947 17.36C101.395 16.848 102.115 16.488 103.107 16.28C104.099 16.056 105.419 15.944 107.067 15.944H107.979V15.608C107.979 15.032 107.827 14.624 107.523 14.384C107.235 14.144 106.731 14.024 106.011 14.024C105.611 14.024 105.171 14.072 104.691 14.168C104.227 14.248 103.699 14.4 103.107 14.624C102.579 14.816 102.139 14.808 101.787 14.6C101.435 14.392 101.203 14.096 101.091 13.712C100.995 13.312 101.035 12.92 101.211 12.536C101.403 12.136 101.763 11.84 102.291 11.648C103.059 11.376 103.763 11.192 104.403 11.096C105.059 10.984 105.659 10.928 106.203 10.928C108.171 10.928 109.627 11.352 110.571 12.2C111.531 13.048 112.011 14.384 112.011 16.208V21.056C112.011 22.496 111.355 23.216 110.043 23.216C108.795 23.216 108.131 22.576 108.051 21.296C107.827 21.904 107.443 22.384 106.899 22.736C106.355 23.088 105.691 23.264 104.907 23.264ZM105.867 20.48C106.459 20.48 106.955 20.288 107.355 19.904C107.771 19.52 107.979 19.016 107.979 18.392V17.96H107.067C106.123 17.96 105.427 18.064 104.979 18.272C104.547 18.464 104.331 18.776 104.331 19.208C104.331 19.576 104.459 19.88 104.715 20.12C104.987 20.36 105.371 20.48 105.867 20.48ZM115.739 23C115.163 23 114.731 22.816 114.443 22.448C114.155 22.08 114.027 21.64 114.059 21.128C114.107 20.6 114.339 20.112 114.755 19.664L119.459 14.336H115.571C114.515 14.336 113.987 13.808 113.987 12.752C113.987 11.712 114.515 11.192 115.571 11.192H122.363C123.003 11.192 123.483 11.376 123.803 11.744C124.123 12.112 124.267 12.552 124.235 13.064C124.203 13.576 123.979 14.056 123.563 14.504L118.835 19.856H122.963C124.035 19.856 124.571 20.376 124.571 21.416C124.571 22.472 124.035 23 122.963 23H115.739Z" fill="#00D2EA"/>
</svg>
